<?xml version="1.0" encoding="utf-8"?>
<!-- Generator: Adobe Illustrator 24.0.0, SVG Export Plug-In . SVG Version: 6.00 Build 0)  -->
<svg version="1.1" id="Capa_1" xmlns="http://www.w3.org/2000/svg" xmlns:xlink="http://www.w3.org/1999/xlink" x="0px" y="0px"
	 viewBox="0 0 90.8 90.8" style="enable-background:new 0 0 90.8 90.8;" xml:space="preserve">
<style type="text/css">
	.st0{fill:#FFFFFF;}
</style>
<path class="st0" d="M68.1,34.1c-3.1,0-5.7-2.5-5.7-5.7c0-3.1,2.5-5.7,5.7-5.7c3.1,0,5.7,2.5,5.7,5.7C73.8,31.5,71.2,34.1,68.1,34.1
	z M45.4,22.7c-3.1,0-5.7-2.5-5.7-5.7c0-3.1,2.5-5.7,5.7-5.7c3.1,0,5.7,2.5,5.7,5.7C51.1,20.2,48.5,22.7,45.4,22.7z M22.7,34.1
	c-3.1,0-5.7-2.5-5.7-5.7c0-3.1,2.5-5.7,5.7-5.7c3.1,0,5.7,2.5,5.7,5.7C28.4,31.5,25.8,34.1,22.7,34.1z M17,56.7
	c-3.1,0-5.7-2.5-5.7-5.7c0-3.1,2.5-5.7,5.7-5.7c3.1,0,5.7,2.5,5.7,5.7C22.7,54.2,20.2,56.7,17,56.7z M36.2,0.9
	C18.6,4.3,4.4,18.5,0.9,36.1C-5.6,69.2,24.3,94,46.8,90.5c7.3-1.1,10.9-9.7,7.5-16.3c-4.1-8,1.8-17.4,10.8-17.4h14.1
	c6.3,0,11.5-5.2,11.5-11.6C90.7,17.2,65.3-4.8,36.2,0.9z"/>
</svg>
