<?xml version="1.0" encoding="utf-8"?>
<!-- Generator: Adobe Illustrator 24.0.0, SVG Export Plug-In . SVG Version: 6.00 Build 0)  -->
<svg version="1.1" id="Capa_1" xmlns="http://www.w3.org/2000/svg" xmlns:xlink="http://www.w3.org/1999/xlink" x="0px" y="0px"
	 viewBox="0 0 153.8 92.3" style="enable-background:new 0 0 153.8 92.3;" xml:space="preserve">
<style type="text/css">
	.st0{fill:#FFFFFF;}
</style>
<path class="st0" d="M84.8,60.3c-6.9,2.1-12.7,0.9-15.8,0L34.2,49.6l-3.4,27.3c0,8.5,20.7,15.4,46.1,15.4c25.5,0,46.1-6.9,46.1-15.4
	l-3.4-27.3L84.8,60.3z M149.5,21.4l-67-20.6c-3.7-1.1-7.6-1.1-11.2,0l-67,20.6c-5.7,1.7-5.7,9.2,0,11L15.9,36
	c-2.6,3.2-4.1,7-4.3,11.3c-2.3,1.3-3.9,3.7-3.9,6.6c0,2.6,1.4,4.8,3.3,6.2L4.9,87.6c-0.5,2.4,1.3,4.7,3.8,4.7h13.5
	c2.5,0,4.3-2.3,3.8-4.7L19.7,60c2-1.4,3.3-3.6,3.3-6.2c0-2.8-1.6-5.1-3.8-6.5c0.2-3.6,2-6.8,5-8.8l47,14.4c2.2,0.7,6.4,1.5,11.2,0
	l67-20.6C155.2,30.7,155.2,23.2,149.5,21.4z"/>
</svg>
