<?xml version="1.0" encoding="utf-8"?>
<!-- Generator: Adobe Illustrator 24.0.0, SVG Export Plug-In . SVG Version: 6.00 Build 0)  -->
<svg version="1.1" id="Capa_1" xmlns="http://www.w3.org/2000/svg" xmlns:xlink="http://www.w3.org/1999/xlink" x="0px" y="0px"
	 viewBox="0 0 73.8 90.8" style="enable-background:new 0 0 73.8 90.8;" xml:space="preserve">
<style type="text/css">
	.st0{fill:#FFFFFF;}
</style>
<path class="st0" d="M68.1,39.7h-7.8l-4.6-9.4c-2.2-4.5-6.3-7.8-11-9l-12.6-3.7c-5-1.2-10.2-0.1-14.3,3l-7,5.4c-2.5,1.9-3,5.5-1,8
	c1.9,2.5,5.5,3,8,1l7-5.4c1.4-1,3.1-1.4,4.5-1.1l2.6,0.8l-6.6,15.5c-2.2,5.2-0.2,11.4,4.7,14.2l15.1,8.9L40,83.4
	c-0.9,3,0.7,6.2,3.7,7.1c0.6,0.2,1.1,0.3,1.7,0.3c2.4,0,4.6-1.6,5.4-4l5.6-17.9c1-3.7-0.5-7.6-3.8-9.6l-10.9-6.4l5.6-13.9l3.6,7.3
	c1.4,2.9,4.4,4.8,7.6,4.8h9.6c3.1,0,5.7-2.5,5.7-5.7C73.8,42.3,71.2,39.7,68.1,39.7z M20.2,56.3l-2.6,6.1H5.7C2.5,62.4,0,65,0,68.1
	c0,3.1,2.5,5.7,5.7,5.7h13.7c3.4,0,6.5-2,7.8-5.2l1.6-3.6l-1.9-1.1C23.8,62,21.6,59.3,20.2,56.3z M48.2,17c4.7,0,8.5-3.8,8.5-8.5
	c0-4.7-3.8-8.5-8.5-8.5s-8.5,3.8-8.5,8.5C39.7,13.2,43.5,17,48.2,17z"/>
</svg>
