<?xml version="1.0" encoding="utf-8"?>
<!-- Generator: Adobe Illustrator 24.0.0, SVG Export Plug-In . SVG Version: 6.00 Build 0)  -->
<svg version="1.1" id="Capa_1" xmlns="http://www.w3.org/2000/svg" xmlns:xlink="http://www.w3.org/1999/xlink" x="0px" y="0px"
	 viewBox="0 0 115.4 92.3" style="enable-background:new 0 0 115.4 92.3;" xml:space="preserve">
<style type="text/css">
	.st0{fill:#FFFFFF;}
</style>
<path class="st0" d="M88.7,72.1l26-24.3c0.9-0.8,0.9-2.3,0-3.2l-26-24.4c-0.9-0.8-2.2-0.8-3.1,0.1l-7.8,8.4
	c-0.8,0.9-0.8,2.3,0.1,3.1l16.3,14.4L77.9,60.5c-0.9,0.8-1,2.2-0.1,3.1l7.8,8.4C86.4,72.8,87.8,72.9,88.7,72.1z M29.7,72l7.8-8.4
	c0.8-0.9,0.8-2.3-0.1-3.1L21.1,46.1l16.3-14.4c0.9-0.8,1-2.2,0.1-3.1l-7.8-8.4c-0.8-0.9-2.2-0.9-3.1-0.1l-26,24.3
	c-0.9,0.8-0.9,2.3,0,3.2l26,24.3C27.5,72.9,28.9,72.8,29.7,72z M50.3,92.2l-11-3.2c-1.2-0.3-1.8-1.5-1.5-2.7L62.4,1.6
	c0.3-1.2,1.5-1.8,2.7-1.5l11,3.2c1.2,0.3,1.8,1.5,1.5,2.7L53,90.7C52.6,91.9,51.4,92.5,50.3,92.2z"/>
</svg>
