<?xml version="1.0" encoding="utf-8"?>
<!-- Generator: Adobe Illustrator 26.1.0, SVG Export Plug-In . SVG Version: 6.00 Build 0)  -->
<svg version="1.1" id="Capa_1" xmlns="http://www.w3.org/2000/svg" xmlns:xlink="http://www.w3.org/1999/xlink" x="0px" y="0px"
	 viewBox="0 0 60 60" style="enable-background:new 0 0 60 60;" xml:space="preserve">
<style type="text/css">
	.st0{fill:#FFFFFF;}
	.st1{fill:#B1B1B1;}
	.st2{fill:#848484;}
	.st3{fill-rule:evenodd;clip-rule:evenodd;fill:#FFFFFF;}
	.st4{fill-rule:evenodd;clip-rule:evenodd;fill:#B1B1B1;}
	.st5{fill-rule:evenodd;clip-rule:evenodd;fill:#848484;}
</style>
<g id="Group_159" transform="translate(-9463.384 -8799.461)">
	<path id="Path_1037" class="st0" d="M9506.2,8825.5c-1.4-0.1-2.7,0.7-3.3,1.9c-0.3,0.6-0.5,1.2-0.5,1.8h5.3c0.6,0,1.1,0,1.4,0
		c0.2,0,0.4-0.1,0.6-0.2v-0.2c0-0.3-0.1-0.6-0.2-1C9509,8826.4,9507.7,8825.4,9506.2,8825.5z"/>
	<path id="Path_1038" class="st0" d="M9512.8,8799.5H9474c-5.9,0.1-10.7,5-10.6,10.9v38.2c-0.1,5.9,4.7,10.8,10.6,10.9h38.8
		c5.9-0.1,10.7-5,10.6-10.9v-38.2C9523.5,8804.4,9518.7,8799.5,9512.8,8799.5z M9495.2,8841.8h-5.2c-0.2,0-0.4-0.1-0.4-0.3l-2.1-6.1
		h-9.3l-1.9,6c0,0.2-0.3,0.4-0.5,0.4h-4.7c-0.3,0-0.4-0.2-0.3-0.5l8.1-23.7c0.1-0.2,0.2-0.5,0.2-0.8c0.1-0.6,0.2-1.1,0.2-1.7
		c0-0.1,0.1-0.3,0.2-0.3c0,0,0,0,0.1,0h6.4c0.2,0,0.3,0.1,0.3,0.2l9.1,26.3C9495.5,8841.6,9495.4,8841.8,9495.2,8841.8z
		 M9514.8,8831.5c0,0.5-0.1,0.9-0.1,1.1c0,0.2-0.2,0.3-0.4,0.3c-0.2,0-0.4,0-0.8,0.1s-0.9,0.1-1.4,0.1c-0.6,0-1.2-0.1-1.8-0.1h-7.9
		c0.1,0.8,0.4,1.6,0.8,2.3c0.4,0.7,1.1,1.2,1.8,1.5c1,0.4,2.1,0.7,3.2,0.6c0.9,0,1.7-0.1,2.6-0.3c0.8-0.1,1.5-0.3,2.2-0.6
		c0.1-0.1,0.2,0,0.2,0.2v3.9c0,0.1,0,0.2-0.1,0.3c0,0.1-0.1,0.1-0.2,0.2c-0.8,0.4-1.6,0.6-2.5,0.8c-1.2,0.2-2.4,0.3-3.5,0.3
		c-1.6,0.1-3.3-0.3-4.8-0.9c-1.2-0.6-2.3-1.4-3.1-2.4c-0.8-1-1.4-2.1-1.7-3.4c-0.3-1.2-0.5-2.5-0.5-3.7c0-1.4,0.2-2.8,0.6-4.1
		c0.4-1.3,1-2.5,1.9-3.5c0.8-1,1.8-1.9,3-2.4c1.3-0.6,2.7-0.9,4.2-0.8c1.3,0,2.7,0.2,3.9,0.8c1,0.5,1.9,1.2,2.6,2
		c0.7,0.9,1.2,1.9,1.5,2.9c0.3,1,0.5,2.1,0.5,3.1C9514.9,8830.5,9514.8,8831.1,9514.8,8831.5L9514.8,8831.5z"/>
	<path id="Path_1039" class="st0" d="M9484.8,8826.2l-0.7-2.4c-0.2-0.8-0.5-1.5-0.7-2.3c-0.2-0.7-0.4-1.4-0.5-2h0
		c-0.2,1.1-0.5,2.2-0.8,3.3c-0.4,1.2-0.8,2.5-1.1,3.8c-0.4,1.3-0.8,2.5-1.1,3.6h6.4c-0.2-0.5-0.4-1.2-0.6-1.9
		C9485.2,8827.7,9485,8827,9484.8,8826.2z"/>
</g>
</svg>
