<?xml version="1.0" encoding="utf-8"?>
<!-- Generator: Adobe Illustrator 26.1.0, SVG Export Plug-In . SVG Version: 6.00 Build 0)  -->
<svg version="1.1" id="Capa_1" xmlns="http://www.w3.org/2000/svg" xmlns:xlink="http://www.w3.org/1999/xlink" x="0px" y="0px"
	 viewBox="0 0 60 60" style="enable-background:new 0 0 60 60;" xml:space="preserve">
<style type="text/css">
	.st0{fill:#FFFFFF;}
	.st1{fill:#B1B1B1;}
	.st2{fill:#848484;}
	.st3{fill-rule:evenodd;clip-rule:evenodd;fill:#FFFFFF;}
	.st4{fill-rule:evenodd;clip-rule:evenodd;fill:#B1B1B1;}
	.st5{fill-rule:evenodd;clip-rule:evenodd;fill:#848484;}
</style>
<g id="Group_161" transform="translate(-9463.388 -9105.496)">
	<g id="Group_160">
		<path id="Path_1040" class="st0" d="M9489.7,9132.2c-0.2-0.8-0.5-1.5-0.7-2.3c-0.2-0.8-0.5-1.5-0.7-2.2c-0.2-0.7-0.4-1.4-0.6-2h0
			c-0.2,1.1-0.5,2.2-0.8,3.2c-0.4,1.2-0.8,2.4-1.1,3.7c-0.4,1.3-0.7,2.5-1.1,3.5h6.4c-0.2-0.5-0.4-1.1-0.6-1.8
			C9490.2,9133.7,9489.9,9132.9,9489.7,9132.2z"/>
		<path id="Path_1041" class="st0" d="M9512.8,9105.5H9474c-5.9,0.1-10.7,4.9-10.6,10.9c0,0,0,0,0,0v38.2
			c-0.1,5.9,4.7,10.8,10.6,10.9c0,0,0,0,0,0h38.7c5.9-0.1,10.7-4.9,10.6-10.9c0,0,0,0,0,0v-38.2
			C9523.5,9110.5,9518.7,9105.6,9512.8,9105.5C9512.8,9105.5,9512.8,9105.5,9512.8,9105.5z M9500.1,9147.9h-5.2
			c-0.2,0-0.4-0.1-0.4-0.3l-2-6.1h-9.3l-1.9,6c0,0.2-0.2,0.4-0.5,0.4h-4.7c-0.3,0-0.4-0.2-0.3-0.5l8-23.8c0.1-0.3,0.1-0.5,0.2-0.8
			c0.1-0.6,0.2-1.1,0.1-1.7c0-0.1,0.1-0.3,0.2-0.3h6.5c0.2,0,0.3,0.1,0.3,0.2l9.1,26.4C9500.5,9147.8,9500.4,9147.9,9500.1,9147.9z
			 M9508.6,9147.5c0,0.3-0.1,0.4-0.3,0.4h-4.9c-0.2,0-0.4-0.2-0.4-0.4v-19.7c0-0.3,0.1-0.4,0.3-0.4h4.9c0.2,0,0.3,0.1,0.3,0.4
			L9508.6,9147.5z M9508.1,9124.3c-0.6,0.6-1.4,1-2.3,0.9c-0.8,0-1.6-0.3-2.2-0.9c-0.6-0.6-0.9-1.5-0.8-2.4c0-0.9,0.3-1.7,0.9-2.3
			c0.6-0.6,1.4-0.9,2.2-0.9c0.9,0,1.7,0.3,2.3,0.9C9509.3,9121.1,9509.3,9123,9508.1,9124.3L9508.1,9124.3z"/>
	</g>
</g>
</svg>
