<?xml version="1.0" encoding="utf-8"?>
<!-- Generator: Adobe Illustrator 26.1.0, SVG Export Plug-In . SVG Version: 6.00 Build 0)  -->
<svg version="1.1" id="Capa_1" xmlns="http://www.w3.org/2000/svg" xmlns:xlink="http://www.w3.org/1999/xlink" x="0px" y="0px"
	 viewBox="0 0 40 60" style="enable-background:new 0 0 40 60;" xml:space="preserve">
<style type="text/css">
	.st0{fill:#FFFFFF;}
	.st1{fill:#B1B1B1;}
	.st2{fill:#848484;}
	.st3{fill-rule:evenodd;clip-rule:evenodd;fill:#FFFFFF;}
	.st4{fill-rule:evenodd;clip-rule:evenodd;fill:#B1B1B1;}
	.st5{fill-rule:evenodd;clip-rule:evenodd;fill:#848484;}
</style>
<g id="Group_212" transform="translate(279.612 -393.634)">
	<path id="Path_1171" class="st0" d="M-269.6,453.6c5.5,0,10-4.5,10-10v-10h-10c-5.5,0-10,4.5-10,10S-275.1,453.6-269.6,453.6z"/>
	<path id="Path_1172" class="st1" d="M-279.6,423.6c0-5.5,4.5-10,10-10h10v20h-10C-275.1,433.6-279.6,429.2-279.6,423.6z"/>
	<path id="Path_1173" class="st0" d="M-279.6,403.6c0-5.5,4.5-10,10-10h10v20h-10C-275.1,413.6-279.6,409.2-279.6,403.6z"/>
	<path id="Path_1174" class="st1" d="M-259.6,393.6h10c5.5,0,10,4.5,10,10s-4.5,10-10,10h-10V393.6z"/>
	<path id="Path_1175" class="st2" d="M-239.6,423.6c0,5.5-4.5,10-10,10s-10-4.5-10-10s4.5-10,10-10S-239.6,418.1-239.6,423.6z"/>
</g>
</svg>
