<?xml version="1.0" encoding="utf-8"?>
<!-- Generator: Adobe Illustrator 26.1.0, SVG Export Plug-In . SVG Version: 6.00 Build 0)  -->
<svg version="1.1" id="Capa_1" xmlns="http://www.w3.org/2000/svg" xmlns:xlink="http://www.w3.org/1999/xlink" x="0px" y="0px"
	 viewBox="0 0 60 60" style="enable-background:new 0 0 60 60;" xml:space="preserve">
<style type="text/css">
	.st0{fill:#FFFFFF;}
	.st1{fill:#B1B1B1;}
	.st2{fill:#848484;}
	.st3{fill-rule:evenodd;clip-rule:evenodd;fill:#FFFFFF;}
	.st4{fill-rule:evenodd;clip-rule:evenodd;fill:#B1B1B1;}
	.st5{fill-rule:evenodd;clip-rule:evenodd;fill:#848484;}
</style>
<path id="Path_1177" class="st0" d="M58.9,27.3L32.7,1.1c-1.5-1.5-4-1.5-5.5,0c0,0,0,0,0,0l0,0l-5.4,5.4l6.9,6.9
	c2.4-0.8,5,0.5,5.8,2.9c0.3,1,0.3,2,0,3l6.6,6.7c2.4-0.8,5,0.4,5.8,2.8c0.6,1.7,0.2,3.5-1.1,4.8l0,0c-1.8,1.8-4.7,1.8-6.5,0
	c-1.3-1.3-1.7-3.3-1-5l-6.2-6.2v16.3c0.4,0.2,0.9,0.5,1.2,0.9c1.8,1.8,1.8,4.7,0,6.5l0,0c-1.8,1.8-4.7,1.8-6.5,0
	c-1.8-1.8-1.8-4.7,0-6.5c0.4-0.4,0.9-0.8,1.5-1V22.1c-0.6-0.2-1.1-0.6-1.5-1c-1.3-1.3-1.7-3.3-1-5l-6.8-6.8l-18,18
	c-1.5,1.5-1.5,4,0,5.5c0,0,0,0,0,0l0,0l26.2,26.2c1.5,1.5,4,1.5,5.5,0l26.1-26.1C60.4,31.3,60.4,28.8,58.9,27.3"/>
</svg>
