<?xml version="1.0" encoding="utf-8"?>
<!-- Generator: Adobe Illustrator 26.1.0, SVG Export Plug-In . SVG Version: 6.00 Build 0)  -->
<svg version="1.1" id="Capa_1" xmlns="http://www.w3.org/2000/svg" xmlns:xlink="http://www.w3.org/1999/xlink" x="0px" y="0px"
	 viewBox="0 0 60 58.5" style="enable-background:new 0 0 60 58.5;" xml:space="preserve">
<style type="text/css">
	.st0{fill:#FFFFFF;}
	.st1{fill:#B1B1B1;}
	.st2{fill:#848484;}
	.st3{fill-rule:evenodd;clip-rule:evenodd;fill:#FFFFFF;}
	.st4{fill-rule:evenodd;clip-rule:evenodd;fill:#B1B1B1;}
	.st5{fill-rule:evenodd;clip-rule:evenodd;fill:#848484;}
</style>
<g id="Group_213" transform="translate(-9283.384 -8799.461)">
	<path id="Path_373" class="st0" d="M9322.9,8857.9c-1.5,0.3-2.1-0.6-2.1-1.4c0-1,0-4.2,0-8.2c0-2.8-1-4.6-2-5.6
		c6.7-0.7,13.7-3.3,13.7-14.8c0-3-1.1-5.9-3.1-8.1c0.9-2.6,0.8-5.4-0.3-7.9c0,0-2.5-0.8-8.2,3.1c-4.9-1.3-10.1-1.3-15,0
		c-5.7-3.9-8.2-3.1-8.2-3.1c-1.1,2.5-1.2,5.4-0.3,7.9c-2,2.2-3.1,5.1-3.1,8.1c0,11.5,7,14.1,13.7,14.8c-1.1,1.1-1.8,2.5-1.9,4
		c-1.7,0.8-6.1,2.1-8.7-2.5c-1-1.7-2.7-2.8-4.6-3.1c0,0-2.9,0-0.2,1.8c0,0,2,0.9,3.3,4.4c0,0,1.8,5.4,10.1,3.5c0,2.5,0,4.9,0,5.6
		c0,0.8-0.5,1.7-2,1.4c-15.7-5.2-24.2-22.2-19-37.9c5.2-15.7,22.2-24.2,37.9-19c15.7,5.2,24.2,22.2,19,37.9
		C9338.9,8847.9,9331.8,8854.9,9322.9,8857.9L9322.9,8857.9z"/>
	<path id="Path_374" class="st0" d="M9306,8848c0,0.2-0.2,0.5-0.6,0.6c-0.4,0.1-0.7-0.1-0.7-0.3c0-0.2,0.2-0.5,0.6-0.6
		C9305.7,8847.6,9306,8847.7,9306,8848z"/>
	<path id="Path_375" class="st0" d="M9303.5,8848.1c0,0.2-0.3,0.5-0.6,0.5c-0.4,0-0.6-0.2-0.6-0.4c0-0.2,0.3-0.5,0.6-0.5
		C9303.3,8847.6,9303.5,8847.8,9303.5,8848.1z"/>
	<path id="Path_376" class="st0" d="M9301,8847.8c-0.1,0.2-0.4,0.3-0.8,0.2c-0.3-0.1-0.6-0.4-0.5-0.6c0.1-0.2,0.4-0.3,0.7-0.2
		C9300.9,8847.3,9301.1,8847.6,9301,8847.8z"/>
	<path id="Path_377" class="st0" d="M9298.8,8847.2c-0.2,0.2-0.5,0.1-0.8-0.1s-0.3-0.6-0.2-0.8c0.2-0.2,0.5-0.1,0.8,0.1
		S9299,8847,9298.8,8847.2z"/>
	<path id="Path_378" class="st0" d="M9297.1,8845.2c-0.2,0.1-0.5,0-0.7-0.3c-0.2-0.3-0.2-0.6,0-0.7c0.2-0.1,0.5,0,0.7,0.2
		C9297.3,8844.7,9297.3,8845.1,9297.1,8845.2z"/>
	<path id="Path_379" class="st0" d="M9296.1,8843.5c-0.1,0.1-0.4,0.1-0.6-0.1c-0.2-0.2-0.2-0.4-0.1-0.6c0.1-0.1,0.4-0.1,0.6,0.1
		C9296.2,8843.1,9296.2,8843.4,9296.1,8843.5z"/>
	<path id="Path_380" class="st0" d="M9294.6,8842.2c-0.1,0.2-0.3,0.2-0.5,0.1c-0.2-0.1-0.3-0.3-0.3-0.5c0.1-0.1,0.3-0.2,0.5-0.1
		C9294.6,8841.9,9294.7,8842,9294.6,8842.2z"/>
</g>
</svg>
