<?xml version="1.0" encoding="utf-8"?>
<!-- Generator: Adobe Illustrator 26.1.0, SVG Export Plug-In . SVG Version: 6.00 Build 0)  -->
<svg version="1.1" id="Capa_1" xmlns="http://www.w3.org/2000/svg" xmlns:xlink="http://www.w3.org/1999/xlink" x="0px" y="0px"
	 viewBox="0 0 60 60" style="enable-background:new 0 0 60 60;" xml:space="preserve">
<style type="text/css">
	.st0{fill:#FFFFFF;}
	.st1{fill:#B1B1B1;}
	.st2{fill:#848484;}
	.st3{fill-rule:evenodd;clip-rule:evenodd;fill:#FFFFFF;}
	.st4{fill-rule:evenodd;clip-rule:evenodd;fill:#B1B1B1;}
	.st5{fill-rule:evenodd;clip-rule:evenodd;fill:#848484;}
</style>
<g id="Group_162" transform="translate(-9463.388 -8723.277)">
	<path id="Path_1042" class="st0" d="M9500.5,8749.5c-1,0-2,0.2-2.8,0.7c-0.9,0.4-1.6,1.1-2.1,1.9c-0.6,1-0.9,2.1-0.8,3.3
		c0,0.9,0.1,1.8,0.4,2.6c0.2,0.7,0.6,1.3,1.1,1.8c0.5,0.5,1.1,0.8,1.7,1c0.7,0.2,1.4,0.3,2.1,0.3c0.4,0,0.7,0,1-0.1
		c0.3,0,0.6,0,0.9-0.1v-11.3c-0.2-0.1-0.4-0.1-0.7-0.1C9501.1,8749.5,9500.8,8749.5,9500.5,8749.5z"/>
	<path id="Path_1043" class="st0" d="M9512.8,8723.3H9474c-5.9,0.1-10.7,4.9-10.6,10.9c0,0,0,0,0,0v38.2
		c-0.1,5.9,4.7,10.8,10.6,10.9c0,0,0,0,0,0h38.8c5.9-0.1,10.7-4.9,10.6-10.9c0,0,0,0,0,0v-38.2
		C9523.5,8728.2,9518.7,8723.4,9512.8,8723.3C9512.8,8723.3,9512.8,8723.3,9512.8,8723.3z M9485.2,8765.3c0,0.3-0.1,0.4-0.3,0.4
		h-4.9c-0.2,0-0.3-0.1-0.3-0.4V8739c0-0.2,0.1-0.3,0.4-0.3h4.9c0.2,0,0.3,0.1,0.3,0.2c0,0,0,0,0,0c0,0,0,0,0,0.1L9485.2,8765.3z
		 M9507.5,8764.5c-1.3,0.6-2.7,1-4.1,1.2c-1.3,0.2-2.6,0.4-3.9,0.4c-1.9,0-3.7-0.4-5.4-1.2c-1.6-0.8-2.9-2-3.8-3.5
		c-1-1.8-1.5-3.8-1.4-5.8c0-1.9,0.4-3.8,1.4-5.4c0.9-1.7,2.3-3,4-4c1.9-1,4.1-1.6,6.3-1.5c0.2,0,0.4,0,0.5,0c0.2,0,0.5,0,0.8,0.1
		v-8.1c0-0.2,0.1-0.3,0.3-0.3h5.1c0.1,0,0.2,0.1,0.3,0.2v24.5c0,0.5,0,1,0,1.5c0.1,0.5,0.1,1,0.1,1.5
		C9507.8,8764.3,9507.7,8764.4,9507.5,8764.5L9507.5,8764.5z"/>
</g>
</svg>
