<?xml version="1.0" encoding="utf-8"?>
<!-- Generator: Adobe Illustrator 26.1.0, SVG Export Plug-In . SVG Version: 6.00 Build 0)  -->
<svg version="1.1" id="Capa_1" xmlns="http://www.w3.org/2000/svg" xmlns:xlink="http://www.w3.org/1999/xlink" x="0px" y="0px"
	 viewBox="0 0 60 60" style="enable-background:new 0 0 60 60;" xml:space="preserve">
<style type="text/css">
	.st0{fill:#FFFFFF;}
	.st1{fill:#B1B1B1;}
	.st2{fill:#848484;}
	.st3{fill-rule:evenodd;clip-rule:evenodd;fill:#FFFFFF;}
	.st4{fill-rule:evenodd;clip-rule:evenodd;fill:#B1B1B1;}
	.st5{fill-rule:evenodd;clip-rule:evenodd;fill:#848484;}
</style>
<g id="Group_164" transform="translate(-9463.384 -8952.477)">
	<path id="Path_1047" class="st0" d="M9512.8,8952.5H9474c-5.9,0.1-10.7,4.9-10.6,10.9c0,0,0,0,0,0v38.2
		c-0.1,5.9,4.7,10.8,10.6,10.9c0,0,0,0,0,0h38.8c5.9-0.1,10.7-4.9,10.6-10.9c0,0,0,0,0,0v-38.2
		C9523.5,8957.4,9518.7,8952.6,9512.8,8952.5C9512.8,8952.5,9512.8,8952.5,9512.8,8952.5z M9495,8982.3c-1,1.4-2.4,2.5-4,3.1
		c-1.8,0.6-3.7,0.9-5.6,0.9c-0.6,0-1,0-1.2,0c-0.2,0-0.6,0-1.1,0v8.2c0,0.2-0.1,0.3-0.3,0.4c0,0,0,0,0,0h-4.8
		c-0.2,0-0.3-0.1-0.3-0.3v-26.4c0-0.2,0.1-0.3,0.2-0.3c0.4,0,0.8,0,1.4,0c0.6,0,1.2,0,1.9-0.1c0.7,0,1.4,0,2.2,0c0.8,0,1.5,0,2.3,0
		c1.8-0.1,3.5,0.2,5.2,0.8c1.3,0.4,2.4,1.2,3.4,2.1c0.8,0.8,1.4,1.8,1.8,2.9c0.4,1.1,0.6,2.2,0.6,3.3
		C9496.6,8978.8,9496.1,8980.7,9495,8982.3z M9512.1,8974.3v5c0,0.2-0.1,0.3-0.4,0.3c-0.9,0-1.8,0.1-2.7,0.3
		c-0.7,0.2-1.4,0.4-2.1,0.7c-0.5,0.2-0.9,0.5-1.3,0.9v13.1c0,0.3-0.1,0.4-0.3,0.4h-4.9c-0.2,0-0.4-0.1-0.4-0.3c0,0,0,0,0,0v-14.3
		c0-0.6,0-1.3,0-1.9c0-0.7,0-1.3,0-2c0-0.6-0.1-1.2-0.1-1.7c0-0.1,0-0.3,0.2-0.3c0,0,0,0,0.1,0h4.4c0.2,0,0.5,0.2,0.5,0.4
		c0.1,0.2,0.1,0.4,0.2,0.6c0,0.3,0.1,0.5,0.1,0.8c0,0.3,0,0.6,0,0.9c0.7-0.9,1.7-1.6,2.7-2.2c1.2-0.7,2.5-1,3.8-1
		c0.2,0,0.3,0.1,0.4,0.3c0,0,0,0,0,0V8974.3z"/>
	<path id="Path_1048" class="st0" d="M9488.8,8973.3c-0.9-0.4-1.9-0.6-2.9-0.5c-0.7,0-1.2,0-1.7,0c-0.3,0-0.7,0-1,0v8.6
		c0.3,0,0.7,0.1,1,0.1h1.3c1,0,1.9-0.2,2.9-0.5c0.8-0.2,1.5-0.7,2-1.4c0.6-0.8,0.8-1.7,0.8-2.6c0-0.8-0.2-1.6-0.6-2.3
		C9490.1,8974.1,9489.5,8973.6,9488.8,8973.3z"/>
</g>
</svg>
