<?xml version="1.0" encoding="utf-8"?>
<!-- Generator: Adobe Illustrator 26.1.0, SVG Export Plug-In . SVG Version: 6.00 Build 0)  -->
<svg version="1.1" id="Capa_1" xmlns="http://www.w3.org/2000/svg" xmlns:xlink="http://www.w3.org/1999/xlink" x="0px" y="0px"
	 viewBox="0 0 60 60" style="enable-background:new 0 0 60 60;" xml:space="preserve">
<style type="text/css">
	.st0{fill:#FFFFFF;}
	.st1{fill:#B1B1B1;}
	.st2{fill:#848484;}
	.st3{fill-rule:evenodd;clip-rule:evenodd;fill:#FFFFFF;}
	.st4{fill-rule:evenodd;clip-rule:evenodd;fill:#B1B1B1;}
	.st5{fill-rule:evenodd;clip-rule:evenodd;fill:#848484;}
</style>
<g id="Group_163" transform="translate(-9463.384 -9028.984)">
	<path id="Path_1045" class="st0" d="M9488,9049.8c-0.9-0.4-1.9-0.6-3-0.5c-0.6,0-1.2,0-1.7,0c-0.3,0-0.7,0-1,0v8.6
		c0.4,0,0.7,0.1,1,0.1h1.3c1,0,1.9-0.2,2.9-0.5c0.8-0.2,1.5-0.7,2-1.4c0.6-0.8,0.8-1.7,0.8-2.6c0-0.8-0.2-1.6-0.6-2.3
		C9489.3,9050.6,9488.7,9050.1,9488,9049.8z"/>
	<path id="Path_1046" class="st0" d="M9512.8,9029H9474c-5.9,0.1-10.7,4.9-10.6,10.9c0,0,0,0,0,0v38.2c-0.1,5.9,4.7,10.8,10.6,10.9
		c0,0,0,0,0,0h38.8c5.9-0.1,10.7-4.9,10.6-10.9c0,0,0,0,0,0v-38.2C9523.5,9033.9,9518.7,9029.1,9512.8,9029
		C9512.8,9029,9512.8,9029,9512.8,9029z M9494.3,9058.9c-1,1.4-2.4,2.5-4,3.1c-1.8,0.6-3.7,0.9-5.6,0.9c-0.6,0-1,0-1.2,0
		c-0.2,0-0.6,0-1.1,0v8.2c0,0.2-0.1,0.3-0.3,0.4c0,0,0,0,0,0h-4.9c-0.2,0-0.3-0.1-0.3-0.3v-26.4c0-0.2,0.1-0.3,0.2-0.3
		c0.4,0,0.8,0,1.4,0c0.6,0,1.2,0,1.9-0.1s1.4,0,2.2,0c0.8,0,1.5,0,2.3,0c1.8-0.1,3.5,0.2,5.2,0.8c1.3,0.4,2.4,1.2,3.4,2.1
		c0.8,0.8,1.4,1.8,1.8,2.9c0.4,1.1,0.6,2.2,0.6,3.3C9495.9,9055.3,9495.3,9057.2,9494.3,9058.9z M9512,9068.8
		c-0.7,1-1.7,1.8-2.8,2.3c-1.4,0.6-3,0.9-4.5,0.8c-1.1,0-2.3-0.1-3.4-0.3c-0.9-0.2-1.7-0.4-2.6-0.8c-0.2-0.1-0.3-0.3-0.3-0.5v-4.5
		c0-0.1,0-0.2,0.1-0.2c0.1,0,0.2,0,0.2,0c1,0.6,2,1,3.1,1.3c1,0.3,2,0.4,2.9,0.4c0.7,0,1.4-0.1,2.1-0.4c0.4-0.2,0.7-0.6,0.7-1.1
		c0-0.4-0.3-0.8-0.6-1c-0.8-0.5-1.6-0.9-2.4-1.2c-1.3-0.5-2.5-1.1-3.6-1.8c-0.8-0.6-1.4-1.3-1.9-2.2c-0.4-0.8-0.6-1.7-0.6-2.6
		c0-1.1,0.3-2.2,0.8-3.1c0.6-1,1.5-1.8,2.6-2.4c1.4-0.7,2.9-1,4.4-0.9c1,0,2.1,0.1,3.1,0.2c0.7,0.1,1.5,0.3,2.2,0.6
		c0.1,0,0.2,0.1,0.3,0.2c0,0.1,0,0.2,0,0.3v4.2c0,0.1,0,0.2-0.1,0.3c-0.1,0.1-0.3,0.1-0.4,0c-0.8-0.4-1.6-0.7-2.4-0.9
		c-0.9-0.2-1.9-0.3-2.8-0.3c-0.5,0-1,0-1.5,0.2c-0.3,0.1-0.6,0.3-0.8,0.5c-0.1,0.2-0.2,0.4-0.2,0.7c0,0.2,0.1,0.5,0.3,0.7
		c0.2,0.3,0.5,0.5,0.8,0.7c0.6,0.3,1.2,0.6,1.8,0.8c1.4,0.5,2.6,1.1,3.9,1.9c0.8,0.5,1.5,1.3,2,2.1c0.4,0.8,0.6,1.7,0.6,2.6
		C9513,9066.6,9512.7,9067.8,9512,9068.8L9512,9068.8z"/>
</g>
</svg>
