<?xml version="1.0" encoding="utf-8"?>
<!-- Generator: Adobe Illustrator 26.1.0, SVG Export Plug-In . SVG Version: 6.00 Build 0)  -->
<svg version="1.1" id="Capa_1" xmlns="http://www.w3.org/2000/svg" xmlns:xlink="http://www.w3.org/1999/xlink" x="0px" y="0px"
	 viewBox="0 0 60 44.9" style="enable-background:new 0 0 60 44.9;" xml:space="preserve">
<style type="text/css">
	.st0{fill:#FFFFFF;}
	.st1{fill:#B1B1B1;}
	.st2{fill:#848484;}
	.st3{fill-rule:evenodd;clip-rule:evenodd;fill:#FFFFFF;}
	.st4{fill-rule:evenodd;clip-rule:evenodd;fill:#B1B1B1;}
	.st5{fill-rule:evenodd;clip-rule:evenodd;fill:#848484;}
</style>
<path id="Path_1176" class="st0" d="M51.7,25.8c-1.9,0-3.7,0.4-5.4,1.3c-0.5-0.9-0.9-1.8-1.2-2.8c-0.2-0.8-0.2-1.6-0.1-2.4
	c0.2-0.9,0.4-1.7,0.7-2.6c0-0.1-0.1-0.6-1.3-0.6S42,19,41.9,19.3c-0.2,0.6-0.4,1.2-0.5,1.8c-0.2,1.1-2.4,5-3.7,7.1
	c-0.4-0.6-0.7-1.3-0.8-2.1c-0.2-0.8-0.2-1.6-0.1-2.4c0.2-0.9,0.4-1.7,0.7-2.6c0-0.1-0.1-0.6-1.3-0.6s-2.2,0.2-2.4,0.6
	s-0.2,1.1-0.5,1.8s-3.2,7.2-3.9,8.9c-0.4,0.9-0.7,1.6-1,2s0,0,0,0.1L28,34.5v0c-0.2,0.3-0.3,0.6-0.4,0.6c-0.1-0.6-0.1-1.3,0-1.9
	c0.4-2.3,1.5-5.8,1.5-5.9c0-0.1,0.2-0.7-0.7-1c-0.4-0.2-0.9-0.1-1.2,0.2c-0.1,0-0.1,0.2-0.1,0.2s0.9-4-1.8-4c-1.7,0-4.1,1.9-5.3,3.6
	c-0.8,0.4-2.3,1.3-4,2.2c-0.6,0.4-1.3,0.7-1.9,1.1l-0.1-0.1c-3.4-3.6-9.6-6.1-9.3-10.9c0.1-1.7,0.7-6.4,11.9-11.9
	C25.6,2.1,33,3.3,34.2,6.1c1.8,4-3.9,11.4-13.5,12.5c-3.6,0.4-5.5-1-6-1.5c-0.5-0.6-0.6-0.6-0.8-0.5c-0.3,0.2-0.1,0.7,0,0.9
	c0.7,1.3,2,2.3,3.4,2.7c1.7,0.6,6,0.9,11.2-1.1c5.8-2.2,10.3-8.4,9-13.6c-1.3-5.3-10.1-7-18.4-4.1C14,3.2,9.2,5.9,5.1,9.5
	c-4.6,4.3-5.3,8-5,9.5c1.1,5.5,8.7,9.1,11.7,11.8c-0.2,0.1-0.3,0.2-0.4,0.2c-1.5,0.8-7.3,3.8-8.8,7c-1.6,3.6,0.3,6.2,1.5,6.6
	c3.9,0.9,7.9-0.7,10.1-4.1c1.8-2.8,2.1-6.3,0.9-9.3l0-0.1l1.2-0.7c0.8-0.5,1.5-0.9,2.2-1.2c-0.4,1.3-0.7,2.6-0.8,4
	c-0.2,2.1,0.7,4.7,1.8,5.8c0.4,0.3,0.9,0.5,1.4,0.5c1.3,0,1.9-1.1,2.5-2.3c0.8-1.6,1.5-3.4,1.5-3.4s-0.9,4.9,1.5,4.9
	c0.9,0,1.8-1.1,2.2-1.7v0c0,0,0,0,0.1-0.1s0.1-0.1,0.1-0.2v0c0.4-0.6,1.1-2,2.3-4.3c1.5-3,3-6.7,3-6.7c0.1,0.8,0.3,1.6,0.6,2.4
	c0.4,1,0.8,1.9,1.3,2.8c-0.4,0.5-0.6,0.8-0.6,0.8l0,0c-0.3,0.4-0.6,0.8-0.9,1.2c-1,1.1-2,2.3-2.8,3.5c-0.3,0.4-0.2,1,0.3,1.3
	c0.5,0.2,1,0.3,1.5,0.2c0.8,0,1.5-0.2,2.2-0.5c0.7-0.2,1.3-0.6,1.9-1c1.2-0.8,1.9-2.3,1.8-3.7c-0.1-0.9-0.3-1.8-0.7-2.6
	c0.1-0.2,0.2-0.3,0.3-0.5c1.2-1.8,2.3-3.7,3.3-5.7c0.1,0.8,0.3,1.6,0.6,2.4c0.3,0.8,0.6,1.6,1.1,2.4c-1.4,1.1-2.5,2.5-3.2,4.1
	c-0.7,2-0.2,2.9,0.9,3.1c0.6,0,1.1-0.1,1.6-0.3c0.7-0.2,1.4-0.6,2-1c1.3-0.8,2.2-2.2,2.2-3.7c0-0.8-0.2-1.5-0.5-2.2
	c1.8-0.7,3.9-1,5.8-0.7c5.2,0.6,6.2,3.9,6,5.2c-0.2,1-0.8,1.8-1.7,2.3c-0.4,0.2-0.5,0.3-0.4,0.5c0,0.2,0.2,0.2,0.5,0.2
	c1.6-0.5,2.7-2,2.8-3.6C60.1,29.3,57.1,25.8,51.7,25.8L51.7,25.8z M11.4,39.4c-1.7,1.9-4.1,2.6-5.2,2C5.1,40.7,5.6,38,7.7,36
	c1.3-1.1,2.6-2.2,4.1-3c0.2-0.2,0.6-0.4,1.1-0.6c0,0,0.1,0,0.1-0.1c0.1,0,0.2-0.1,0.3-0.2C14,34.6,13.3,37.4,11.4,39.4z M24,30.8
	c-0.6,1.5-1.9,5.2-2.6,5c-0.7-0.2-1.1-3-0.1-5.8c0.5-1.4,1.2-2.6,2.1-3.8c0.9-1.1,2-1.4,2.2-1C25.9,25.8,24.4,29.9,24,30.8L24,30.8z
	 M34.4,35.8c-0.3,0.1-0.5,0.2-0.6,0.2c-0.1,0,0.1-0.2,0.1-0.2s1.3-1.4,1.8-2c0.3-0.4,0.6-0.8,1-1.3v0.1
	C36.8,34.2,35.2,35.3,34.4,35.8L34.4,35.8z M42.4,34c-0.2-0.1-0.2-0.6,0.5-1.9c0.4-0.9,1-1.7,1.8-2.3c0.1,0.3,0.2,0.7,0.2,1
	C44.9,32.2,43.9,33.6,42.4,34L42.4,34z"/>
</svg>
