<?xml version="1.0" encoding="utf-8"?>
<!-- Generator: Adobe Illustrator 26.1.0, SVG Export Plug-In . SVG Version: 6.00 Build 0)  -->
<svg version="1.1" id="Capa_1" xmlns="http://www.w3.org/2000/svg" xmlns:xlink="http://www.w3.org/1999/xlink" x="0px" y="0px"
	 viewBox="0 0 60 53.8" style="enable-background:new 0 0 60 53.8;" xml:space="preserve">
<style type="text/css">
	.st0{fill:#FFFFFF;}
	.st1{fill:#B1B1B1;}
	.st2{fill:#848484;}
	.st3{fill-rule:evenodd;clip-rule:evenodd;fill:#FFFFFF;}
	.st4{fill-rule:evenodd;clip-rule:evenodd;fill:#B1B1B1;}
	.st5{fill-rule:evenodd;clip-rule:evenodd;fill:#848484;}
</style>
<g id="Group_208" transform="translate(266.433 -288.321)">
	<g id="Group_197" transform="translate(-9549.82 -8736.679)">
		<path id="b" class="st3" d="M9296.5,9026.8l16.9-1.8l16.9,1.8l13.1,17.4l-30,34.6l-30-34.6L9296.5,9026.8z"/>
	</g>
	<g id="Group_198" transform="translate(-9549.82 -8717.297)">
		<path id="c" class="st4" d="M9295.3,9025l18.1,34.4l-30-34.4L9295.3,9025z"/>
	</g>
	<g id="Group_199" transform="translate(-9519.819 -8717.292)">
		<path id="d" class="st4" d="M9300.9,9025l-17.5,34.4l30-34.4L9300.9,9025z"/>
	</g>
	<g id="Group_201" transform="translate(-9537.94 -8736.673)">
		<path id="f" class="st5" d="M9301.5,9025l-17.2,1.8l-0.9,17.6L9301.5,9025z"/>
	</g>
	<g id="Group_202" transform="translate(-9519.827 -8736.679)">
		<path id="g" class="st5" d="M9283.4,9025l16.6,1.8l0.9,17.6L9283.4,9025z"/>
	</g>
	<g id="Group_207" transform="translate(-9537.94 -8736.673)">
		<g id="Group_206" transform="translate(0 0)">
			<path id="j" class="st4" d="M9301.5,9025l-18.1,19.4h35.6L9301.5,9025z"/>
		</g>
	</g>
</g>
</svg>
