<?xml version="1.0" encoding="utf-8"?>
<!-- Generator: Adobe Illustrator 26.1.0, SVG Export Plug-In . SVG Version: 6.00 Build 0)  -->
<svg version="1.1" id="Capa_1" xmlns="http://www.w3.org/2000/svg" xmlns:xlink="http://www.w3.org/1999/xlink" x="0px" y="0px"
	 viewBox="0 0 60.6 60" style="enable-background:new 0 0 60.6 60;" xml:space="preserve">
<style type="text/css">
	.st0{fill:#FFFFFF;}
	.st1{fill:#B1B1B1;}
	.st2{fill:#848484;}
	.st3{fill-rule:evenodd;clip-rule:evenodd;fill:#FFFFFF;}
	.st4{fill-rule:evenodd;clip-rule:evenodd;fill:#B1B1B1;}
	.st5{fill-rule:evenodd;clip-rule:evenodd;fill:#848484;}
</style>
<g id="Group_226" transform="translate(165.965 -146.363)">
	<path id="Path_1178" class="st1" d="M-165.4,167.3c0,0-1.5-1.1,0.3-2.5l4.1-3.7c0.6-0.7,1.7-0.8,2.4-0.2l38.1,28.9v13.8
		c0,0,0,2.2-2.8,1.9L-165.4,167.3z"/>
	<path id="Path_1179" class="st2" d="M-155.6,176.2l-9.8,8.9c0,0-1,0.8,0,2.1l4.6,4.1c0,0,1.1,1.2,2.7-0.2l10.4-7.9L-155.6,176.2z"
		/>
	<path id="Path_1180" class="st2" d="M-138.3,176.3l18-13.8l-0.1-13.8c0,0-0.8-3-3.3-1.4l-24,21.8L-138.3,176.3z"/>
	<path id="Path_1181" class="st0" d="M-123.2,205.6c0.6,0.6,1.5,0.9,2.3,0.7l14-6.9c1-0.5,1.6-1.6,1.5-2.7v-41.3
		c-0.1-1.1-0.8-2.1-1.9-2.4l-12.2-5.9c-1.3-1-3.2-0.9-4.4,0.3c0,0,2.2-1.6,3.3,1.4v54.6c0,0.4-0.1,0.7-0.2,1.1c-0.3,0.6-1,1.3-2.7,1
		L-123.2,205.6z"/>
</g>
</svg>
