<?xml version="1.0" encoding="utf-8"?>
<!-- Generator: Adobe Illustrator 26.1.0, SVG Export Plug-In . SVG Version: 6.00 Build 0)  -->
<svg version="1.1" id="Capa_1" xmlns="http://www.w3.org/2000/svg" xmlns:xlink="http://www.w3.org/1999/xlink" x="0px" y="0px"
	 viewBox="0 0 60 60" style="enable-background:new 0 0 60 60;" xml:space="preserve">
<style type="text/css">
	.st0{fill:#FFFFFF;}
	.st1{fill:#B1B1B1;}
	.st2{fill:#848484;}
	.st3{fill-rule:evenodd;clip-rule:evenodd;fill:#FFFFFF;}
	.st4{fill-rule:evenodd;clip-rule:evenodd;fill:#B1B1B1;}
	.st5{fill-rule:evenodd;clip-rule:evenodd;fill:#848484;}
</style>
<path id="Subtraction_1" class="st0" d="M50.1,60H9.9C4.4,60,0,55.6,0,50.1V9.9C0,4.4,4.4,0,9.9,0h40.2C55.6,0,60,4.4,60,9.9v40.2
	C60,55.6,55.6,60,50.1,60z M43.2,23.3c-2,0-4.1,0.5-5.9,1.5c-1.7,0.9-3,2.3-3.9,3.9c-0.9,1.7-1.4,3.5-1.3,5.4c-0.1,2,0.4,4,1.3,5.8
	c0.9,1.5,2.1,2.7,3.7,3.5c1.6,0.8,3.3,1.1,5.1,1.2h0.2c1.3,0,2.6-0.1,3.8-0.4c1.3-0.3,2.6-0.7,3.8-1.2c0.2-0.1,0.2-0.2,0.2-0.4
	c0-0.5-0.1-1-0.1-1.5c0-0.5-0.1-1.1-0.1-1.5V16.1c0-0.4-0.3-0.7-0.7-0.7h-3.8c-0.4,0.1-0.6,0.4-0.5,0.7v7.3c-0.2,0-0.5,0-0.7,0
	l-0.2,0c-0.2,0-0.4,0-0.5,0S43.3,23.3,43.2,23.3L43.2,23.3z M20.2,34L20.2,34c0.6,1.1,1.2,2.2,1.8,3.3s1.2,2.2,1.7,3.2
	c0.2,0.5,0.5,1,0.7,1.4c0.3,0.5,0.6,1.1,0.9,1.7c0.2,0.3,0.4,0.4,0.7,0.4c0,0,0.1,0,0.1,0h5.6c0.2,0,0.3-0.1,0.3-0.2
	c0-0.1,0-0.2,0-0.3l-7.9-13.3l7.4-12.3c0.1-0.1,0.1-0.2,0.1-0.3c0-0.1-0.1-0.1-0.2-0.1c0,0,0,0-0.1,0H26c0,0,0,0-0.1,0
	c-0.1,0-0.2,0-0.3,0.1c-0.1,0.1-0.1,0.2-0.2,0.3c-0.3,0.6-0.6,1.1-0.9,1.6c-0.2,0.4-0.5,0.9-0.8,1.3c-0.6,1.1-1.1,2.2-1.7,3.2
	s-1.1,2.2-1.6,3.3h0c-0.5-1.1-1.1-2.2-1.6-3.2s-1.2-2.1-1.8-3.2c-0.2-0.4-0.4-0.7-0.6-1.1c-0.4-0.6-0.7-1.3-1-1.9
	c-0.1-0.1-0.1-0.2-0.2-0.2c-0.1,0-0.2-0.1-0.3-0.1H9.4c-0.1,0-0.2,0-0.2,0.1c-0.1,0.1,0,0.2,0,0.3l7.5,12.8L9,43.6
	C9,43.7,9,43.8,9,43.9C9,43.9,9,44,9,44c0,0,0.1,0,0.1,0h5.5c0.2,0,0.4-0.1,0.5-0.4c0.2-0.3,0.3-0.6,0.5-0.9
	c0.4-0.7,0.8-1.4,1.2-2.2c0.6-1.1,1.1-2.2,1.7-3.3C19.1,36.1,19.6,35,20.2,34L20.2,34z M42.9,39.6c-0.7,0-1.4-0.1-2-0.3
	c-0.6-0.2-1.2-0.6-1.7-1c-0.5-0.5-0.9-1.1-1.1-1.8c-0.3-0.8-0.4-1.7-0.4-2.6c-0.2-2.1,1-4.2,2.9-5.1c0.8-0.4,1.8-0.7,2.7-0.7h0.1
	c0.3,0,0.5,0,0.8,0c0.3,0,0.5,0.1,0.8,0.1v11.2c-0.3,0.1-0.6,0.1-1,0.2C43.6,39.6,43.3,39.6,42.9,39.6L42.9,39.6z"/>
</svg>
