<?xml version="1.0" encoding="utf-8"?>
<!-- Generator: Adobe Illustrator 25.4.1, SVG Export Plug-In . SVG Version: 6.00 Build 0)  -->
<svg version="1.1" id="Capa_1" xmlns="http://www.w3.org/2000/svg" xmlns:xlink="http://www.w3.org/1999/xlink" x="0px" y="0px"
	 viewBox="0 0 56.6 56.6" style="enable-background:new 0 0 56.6 56.6;" xml:space="preserve">
<style type="text/css">
	.st0{fill:#EB282B;}
</style>
<path id="Trazado_1004" class="st0" d="M50.5,0H6.1C2.7,0,0,2.7,0,6.1c0,0,0,0,0,0v44.5c0,3.3,2.7,6.1,6.1,6.1c0,0,0,0,0,0h44.5
	c3.3,0,6.1-2.7,6.1-6.1c0,0,0,0,0,0V6.1C56.6,2.7,53.9,0,50.5,0z M28.3,6.5c6,0,10.9,4.9,10.9,10.9c0,6-4.9,10.9-10.9,10.9
	c-6,0-10.9-4.9-10.9-10.9C17.4,11.4,22.3,6.5,28.3,6.5C28.3,6.5,28.3,6.5,28.3,6.5L28.3,6.5z M47.4,46c0,2.3-1.8,4.1-4.1,4.1l0,0
	h-30c-2.3,0-4.1-1.8-4.1-4.1v-3.5c0-6.3,5.1-11.5,11.5-11.5h1.4c3.9,1.8,8.5,1.8,12.4,0h1.4c6.3,0,11.5,5.1,11.5,11.5L47.4,46z"/>
</svg>
