<?xml version="1.0" encoding="utf-8"?>
<!-- Generator: Adobe Illustrator 25.4.1, SVG Export Plug-In . SVG Version: 6.00 Build 0)  -->
<svg version="1.1" id="Capa_1" xmlns="http://www.w3.org/2000/svg" xmlns:xlink="http://www.w3.org/1999/xlink" x="0px" y="0px"
	 viewBox="0 0 30 25" style="enable-background:new 0 0 30 25;" xml:space="preserve">
<style type="text/css">
	.st0{fill:#FFFFFF;}
</style>
<g id="Grupo_270" transform="translate(13432.007 6607)">
	<path id="Rectángulo_70" class="st0" d="M-13414.5-6587h10c1.4,0,2.5,1.1,2.5,2.5l0,0c0,1.4-1.1,2.5-2.5,2.5h-10
		c-1.4,0-2.5-1.1-2.5-2.5l0,0C-13417-6585.9-13415.9-6587-13414.5-6587z"/>
	<path id="Rectángulo_71" class="st0" d="M-13429.5-6597h25c1.4,0,2.5,1.1,2.5,2.5l0,0c0,1.4-1.1,2.5-2.5,2.5h-25
		c-1.4,0-2.5-1.1-2.5-2.5l0,0C-13432-6595.9-13430.9-6597-13429.5-6597z"/>
	<path id="Rectángulo_72" class="st0" d="M-13429.5-6607h10c1.4,0,2.5,1.1,2.5,2.5l0,0c0,1.4-1.1,2.5-2.5,2.5h-10
		c-1.4,0-2.5-1.1-2.5-2.5l0,0C-13432-6605.9-13430.9-6607-13429.5-6607z"/>
</g>
</svg>
