<?xml version="1.0" encoding="utf-8"?>
<!-- Generator: Adobe Illustrator 25.4.1, SVG Export Plug-In . SVG Version: 6.00 Build 0)  -->
<svg version="1.1" id="Capa_1" xmlns="http://www.w3.org/2000/svg" xmlns:xlink="http://www.w3.org/1999/xlink" x="0px" y="0px"
	 viewBox="0 0 56.6 56.6" style="enable-background:new 0 0 56.6 56.6;" xml:space="preserve">
<style type="text/css">
	.st0{fill:#EB282B;}
</style>
<path id="Trazado_1005" class="st0" d="M50.5,0H6.1C2.7,0,0,2.7,0,6.1c0,0,0,0,0,0v44.5c0,3.3,2.7,6.1,6.1,6.1c0,0,0,0,0,0h44.5
	c3.3,0,6.1-2.7,6.1-6.1V6.1C56.6,2.7,53.9,0,50.5,0z M50.1,47.9c0,0.4-0.3,0.7-0.7,0.7H7.2c-0.4,0-0.7-0.3-0.7-0.7v-1.5
	c0-1.2,1-2.2,2.2-2.2c0,0,0,0,0,0h39.2c1.2,0,2.2,1,2.2,2.2c0,0,0,0,0,0L50.1,47.9z M25.4,39.9V22.5h5.8v17.4H37V22.5h5.8v17.4h3.3
	c0.6,0,1.1,0.5,1.1,1.1v1.8H9.4V41c0-0.6,0.5-1.1,1.1-1.1c0,0,0,0,0,0h3.3V22.5h5.8v17.4H25.4z M50.1,18.1c0,0.4-0.3,0.7-0.7,0.7
	h-2.2v1.1c0,0.6-0.5,1.1-1.1,1.1c0,0,0,0,0,0H10.5c-0.6,0-1.1-0.5-1.1-1.1c0,0,0,0,0,0v-1.1H7.2c-0.4,0-0.7-0.3-0.7-0.7v-1.5
	c0-0.3,0.2-0.6,0.4-0.7L28,8c0.2-0.1,0.4-0.1,0.6,0l21.1,8c0.3,0.1,0.4,0.4,0.4,0.7L50.1,18.1z"/>
</svg>
