<?xml version="1.0" encoding="utf-8"?>
<!-- Generator: Adobe Illustrator 24.0.0, SVG Export Plug-In . SVG Version: 6.00 Build 0)  -->
<svg version="1.1" id="Capa_1" xmlns="http://www.w3.org/2000/svg" xmlns:xlink="http://www.w3.org/1999/xlink" x="0px" y="0px"
	 viewBox="0 0 335.6 335.6" style="enable-background:new 0 0 335.6 335.6;" xml:space="preserve">
<style type="text/css">
	.st0{fill:#FFFFFF;}
</style>
<path class="st0" d="M213,167.8L326.2,54.6c12.5-12.5,12.5-32.7,0-45.3c-12.5-12.5-32.7-12.5-45.3,0L167.8,122.5L54.6,9.4
	C42.1-3.1,21.9-3.1,9.4,9.4c-12.5,12.5-12.5,32.7,0,45.3l113.1,113.1L9.4,280.9c-12.5,12.5-12.5,32.7,0,45.3
	c12.5,12.5,32.7,12.5,45.3,0L167.8,213l113.1,113.1c12.5,12.5,32.7,12.5,45.3,0c12.5-12.5,12.5-32.7,0-45.3L213,167.8z"/>
</svg>
