<?xml version="1.0" encoding="utf-8"?>
<!-- Generator: Adobe Illustrator 25.4.1, SVG Export Plug-In . SVG Version: 6.00 Build 0)  -->
<svg version="1.1" id="Capa_1" xmlns="http://www.w3.org/2000/svg" xmlns:xlink="http://www.w3.org/1999/xlink" x="0px" y="0px"
	 viewBox="0 0 57.2 57.3" style="enable-background:new 0 0 57.2 57.3;" xml:space="preserve">
<style type="text/css">
	.st0{fill:#EB282B;}
</style>
<rect id="Rectángulo_63" x="24" y="17.2" class="st0" width="9.2" height="2.3"/>
<path id="Trazado_1214" class="st0" d="M51.1,0h-45C2.7,0,0,2.7,0,6.1v45c0,3.4,2.7,6.1,6.1,6.1c0,0,0,0,0,0h45
	c3.4,0,6.1-2.7,6.1-6.1v-45C57.2,2.7,54.5,0,51.1,0z M47,41.2c0,1.9-1.6,3.4-3.4,3.4H13.7c-1.9,0-3.4-1.6-3.4-3.4V30.9H24v3.4
	c0,0.6,0.5,1.1,1.1,1.1c0,0,0,0,0,0h6.9c0.6,0,1.1-0.5,1.1-1.1c0,0,0,0,0,0v-3.4H47L47,41.2z M47,28.6H10.3v-5.7
	c0-1.9,1.6-3.4,3.4-3.4h5.7V16c0-1.9,1.6-3.4,3.4-3.4h11.5c1.9,0,3.4,1.6,3.4,3.4v3.4h5.7c1.9,0,3.4,1.6,3.4,3.4V28.6z"/>
</svg>
