<?xml version="1.0" encoding="utf-8"?>
<!-- Generator: Adobe Illustrator 25.4.1, SVG Export Plug-In . SVG Version: 6.00 Build 0)  -->
<svg version="1.1" id="Capa_1" xmlns="http://www.w3.org/2000/svg" xmlns:xlink="http://www.w3.org/1999/xlink" x="0px" y="0px"
	 viewBox="0 0 56.6 56.6" style="enable-background:new 0 0 56.6 56.6;" xml:space="preserve">
<style type="text/css">
	.st0{fill:#EB282B;}
</style>
<g id="Grupo_157" transform="translate(0 0)">
	<path id="Trazado_1035" class="st0" d="M50.5,0H6.1C2.7,0,0,2.7,0,6.1v44.4c0,3.3,2.7,6.1,6.1,6.1c0,0,0,0,0,0h44.4
		c3.3,0,6.1-2.7,6.1-6.1V6.1C56.6,2.7,53.9,0,50.5,0z M46.8,31.2c-0.2,1.3-0.6,2.6-1.1,3.9l3.8,3.4l-1.8,3.2l-5-1.6
		c-0.8,1-1.8,1.9-2.8,2.7l1.7,5.1l-3.1,1.8l-3.7-4.1c-1.1,0.4-2.3,0.7-3.5,0.8l-1.1,5.5l-3.6,0l-1.3-5.7c-1.1-0.2-2.2-0.5-3.2-0.9
		l-3.9,4.4L15,47.7l1.8-5.8c-0.8-0.7-1.5-1.4-2.2-2.2l-5.8,1.9L7,38.5l4.6-4.2c-0.3-1-0.6-1.9-0.8-2.9l-6.1-1.2l0-3.6l6.1-1.3
		c0.2-1,0.4-2,0.8-3L7,18.1L8.8,15l5.7,1.8c0.7-0.8,1.4-1.6,2.2-2.3l-1.9-5.6L18.1,7l3.9,4.3c1.1-0.4,2.2-0.8,3.3-1l1.1-5.5l3.6,0
		l1.2,5.3c1.2,0.2,2.5,0.5,3.6,0.9l3.5-4l3.2,1.8l-1.6,5c1,0.8,2,1.7,2.8,2.8l4.9-1.6l1.8,3.1l-3.8,3.4c0.5,1.3,0.9,2.6,1.1,3.9
		l4.9,1l0,3.6L46.8,31.2z"/>
	<path id="Trazado_1036" class="st0" d="M28.7,17.2c-6.1,0-11,5-10.9,11.1c0,6.1,5,11,11.1,10.9s11-5,10.9-11.1c0,0,0,0,0,0
		C39.8,22.1,34.8,17.2,28.7,17.2C28.7,17.2,28.7,17.2,28.7,17.2z"/>
</g>
</svg>
