<?xml version="1.0" encoding="utf-8"?>
<!-- Generator: Adobe Illustrator 25.4.1, SVG Export Plug-In . SVG Version: 6.00 Build 0)  -->
<svg version="1.1" id="Capa_1" xmlns="http://www.w3.org/2000/svg" xmlns:xlink="http://www.w3.org/1999/xlink" x="0px" y="0px"
	 viewBox="0 0 57.3 57.2" style="enable-background:new 0 0 57.3 57.2;" xml:space="preserve">
<style type="text/css">
	.st0{fill:#EB282B;}
</style>
<path id="Trazado_1191" class="st0" d="M51.1,0h-45C2.7,0,0,2.7,0,6.1l0,0v45c0,3.4,2.7,6.1,6.1,6.1h45c3.4,0,6.1-2.7,6.1-6.1v-45
	C57.3,2.7,54.5,0,51.1,0z M27.4,43.3c0,3.2-2.6,5.7-5.7,5.7c-2.5,0-4.7-1.6-5.4-3.9c-0.3,0.1-0.6,0.1-1,0.1c-3.2,0-5.7-2.6-5.7-5.7
	c0,0,0,0,0,0c0-0.4,0-0.8,0.1-1.1c-3.2-1.3-4.8-5-3.5-8.3c0.5-1.3,1.5-2.4,2.7-3.1c-1.6-3.1-0.3-6.9,2.8-8.5
	c0.1-0.1,0.3-0.1,0.4-0.2c-0.1-0.4-0.1-0.7-0.1-1.1c0-2.8,2.3-5.1,5.1-5.1c0.1,0,0.1,0,0.2,0c0.7-2.7,3.5-4.4,6.2-3.7
	c2.3,0.6,3.8,2.6,3.8,4.9L27.4,43.3z M47.6,38.3c0.1,0.4,0.1,0.7,0.1,1.1c0,3.2-2.6,5.7-5.7,5.7c0,0,0,0,0,0c-0.3,0-0.6,0-1-0.1
	c-1,3-4.2,4.6-7.2,3.6c-2.3-0.8-3.9-3-3.9-5.4V13.4c0-2.8,2.3-5.1,5.1-5.1c2.3,0,4.4,1.6,4.9,3.8c0.1,0,0.1,0,0.2,0
	c2.8,0,5.1,2.3,5.1,5.1c0,0.4-0.1,0.7-0.1,1.1c2.4,1,4,3.3,4,5.9c0,1-0.2,1.9-0.7,2.8c3,1.7,4.1,5.6,2.4,8.6
	C50,36.8,48.9,37.8,47.6,38.3L47.6,38.3z"/>
</svg>
