<?xml version="1.0" encoding="utf-8"?>
<!-- Generator: Adobe Illustrator 24.0.0, SVG Export Plug-In . SVG Version: 6.00 Build 0)  -->
<svg version="1.1" id="Capa_1" xmlns="http://www.w3.org/2000/svg" xmlns:xlink="http://www.w3.org/1999/xlink" x="0px" y="0px"
	 viewBox="0 0 448 384" style="enable-background:new 0 0 448 384;" xml:space="preserve">
<style type="text/css">
	.st0{fill:#FFFFFF;}
</style>
<path class="st0" d="M0,32C0,14.3,14.3,0,32,0h384c17.7,0,32,14.3,32,32s-14.3,32-32,32H32C14.3,64,0,49.7,0,32z M0,192
	c0-17.7,14.3-32,32-32h384c17.7,0,32,14.3,32,32s-14.3,32-32,32H32C14.3,224,0,209.7,0,192z M416,384H32c-17.7,0-32-14.3-32-32
	s14.3-32,32-32h384c17.7,0,32,14.3,32,32S433.7,384,416,384z"/>
</svg>
