<?xml version="1.0" encoding="utf-8"?>
<!-- Generator: Adobe Illustrator 26.1.0, SVG Export Plug-In . SVG Version: 6.00 Build 0)  -->
<svg version="1.1" id="Capa_1" xmlns="http://www.w3.org/2000/svg" xmlns:xlink="http://www.w3.org/1999/xlink" x="0px" y="0px"
	 viewBox="0 0 371.2 329.3" style="enable-background:new 0 0 371.2 329.3;" xml:space="preserve">
<style type="text/css">
	.st0{fill:#FFFFFF;}
	.st1{fill:#EB282B;}
</style>
<g id="Group_139" transform="translate(0 90.859)">
	<g id="Group_128">
		<path id="Path_990" class="st0" d="M13.5-3.7H0v-86.1h13.5V-53h15.4v-36.9h13.8v86.1H28.9v-36.9H13.5V-3.7z"/>
		<path id="Path_991" class="st0" d="M51.4-69.2c0-13.8,7.3-21.7,20.5-21.7S92.5-83,92.5-69.2v44.8c0,13.8-7.3,21.7-20.5,21.7
			s-20.5-7.9-20.5-21.7V-69.2z M65-23.6c0,6.2,2.7,8.5,7,8.5s7-2.3,7-8.5v-46.5c0-6.2-2.7-8.5-7-8.5s-7,2.3-7,8.5V-23.6z"/>
		<path id="Path_992" class="st0" d="M101.3-89.9h13.5v73.8h22.3v12.3h-35.8L101.3-89.9z"/>
		<path id="Path_993" class="st0" d="M186.8-3.7h-13.7l-2.3-15.6h-16.6l-2.3,15.6h-12.4l13.8-86.1H173L186.8-3.7z M155.9-31.1h13
			l-6.5-43.6L155.9-31.1z"/>
		<path id="Path_994" class="st0" d="M193-16v-13h13v11.7l-5.9,13.7h-5.5l3.6-12.3L193-16z"/>
		<path id="Path_995" class="st0" d="M253.2-90.9c13.2,0,19.9,7.9,19.9,21.7v2.7h-12.8v-3.6c0-6.2-2.5-8.5-6.8-8.5s-6.8,2.3-6.8,8.5
			c0,17.7,26.5,21,26.5,45.6c0,13.8-6.9,21.7-20.2,21.7s-20.2-7.9-20.2-21.7v-5.3h12.8v6.2c0,6.2,2.7,8.4,7,8.4s7-2.2,7-8.4
			c0-17.7-26.5-21-26.5-45.6C233.3-83,240-90.9,253.2-90.9z"/>
		<path id="Path_996" class="st0" d="M279.9-69.2c0-13.8,7.3-21.7,20.5-21.7S321-83,321-69.2v44.8c0,13.8-7.3,21.7-20.5,21.7
			s-20.5-7.9-20.5-21.7V-69.2z M293.4-23.6c0,6.2,2.7,8.5,7,8.5s7-2.3,7-8.5v-46.5c0-6.2-2.7-8.5-7-8.5s-7,2.3-7,8.5V-23.6z"/>
		<path id="Path_997" class="st0" d="M340.6-32.3l-17.1-57.6h14.1L348-50.6l10.3-39.2h12.9l-17.1,57.6v28.5h-13.5L340.6-32.3z"/>
	</g>
	<g id="Grupo_62" transform="translate(0 100.64)">
		<path id="Trazado_332" class="st0" d="M50.2-16.8v15.4c0,18.5-8.6,29.1-25.1,29.1S0,17.1,0-1.4v-60.3c0-18.5,8.6-29.2,25.1-29.2
			s25.1,10.6,25.1,29.2v11.3H34.3v-12.4c0-8.3-3.4-11.4-8.7-11.4s-8.7,3.1-8.7,11.4v62.6C16.8,8,20.2,11,25.5,11s8.7-3,8.7-11.3
			v-16.6L50.2-16.8z"/>
		<path id="Trazado_333" class="st0" d="M113.4,26.4h-17l-2.9-21H72.9l-2.9,21H54.5L71.6-89.5h24.6L113.4,26.4z M75-10.4h16.2
			L83.1-69L75-10.4z"/>
		<path id="Trazado_334" class="st0" d="M155.9-7.2l11.5-82.3h23.4V26.4h-15.9v-83.1l-11.6,83.1h-15.9l-12.5-82v82h-14.7V-89.5h23.4
			L155.9-7.2z"/>
		<path id="Trazado_335" class="st0" d="M200.2-89.5h16.8V26.4h-16.8V-89.5z"/>
		<path id="Trazado_336" class="st0" d="M226.3-89.5h16.8V9.8h27.7v16.6h-44.5V-89.5z"/>
		<path id="Trazado_337" class="st0" d="M276.5-61.7c0-18.6,9-29.2,25.5-29.2s25.5,10.6,25.5,29.2v60.3c0,18.5-9,29.1-25.5,29.1
			s-25.5-10.6-25.5-29.1V-61.7z M293.3-0.3c0,8.3,3.4,11.4,8.7,11.4s8.7-3.1,8.7-11.4v-62.6c0-8.3-3.4-11.4-8.7-11.4
			s-8.7,3.1-8.7,11.4V-0.3z"/>
	</g>
	<g id="Grupo_64" transform="translate(336.322 100.64)">
		<path id="Trazado_345" class="st0" d="M27.7,22.6l6.9,1.4v3.7L0.3,20.8V15L34.5,8v4l-6.9,1.4V22.6z M24.4,22.1V14L4.6,18.1
			L24.4,22.1z"/>
		<path id="Trazado_346" class="st0" d="M34.5,1.2v3.6H0.3v-5.1l24.7-8.4H0.3v-3.6h34.2V-8L6.9,1.2H34.5z"/>
		<path id="Trazado_347" class="st0" d="M0.3-24.6c0-5.6,3.2-8.2,8.5-8.2h17.2c5.2,0,8.5,2.6,8.5,8.2v8.5H0.3L0.3-24.6z M31.1-24.5
			c0-2.9-1.7-4.3-4.8-4.3H8.6c-3.1,0-4.8,1.4-4.8,4.3v4.3h27.3L31.1-24.5z"/>
		<path id="Trazado_348" class="st0" d="M0.3-44.5c0-5.7,2.7-8.1,7.8-8.1h2.8c3.8,0,6.1,1.4,7,4.5c0.9-3.3,3.5-4.5,7.1-4.5h5.3
			c1.4,0.1,2.8-0.1,4.1-0.7v4.1c-1.3,0.6-2.7,0.8-4.2,0.7H25c-3.9,0-5.1,1.9-5.1,5.3v2.8h14.6v4H0.3L0.3-44.5z M16.5-43.5
			c0-3.2-1-5.1-4.7-5.1H8.5c-3.1,0-4.7,1.2-4.7,4.2v3.9h12.7L16.5-43.5z"/>
		<path id="Trazado_349" class="st0" d="M15.5-69.6h3.4v8.8h12.2v-10.9h3.5v14.9H0.3v-14.9h3.5v10.9h11.7L15.5-69.6z"/>
		<path id="Trazado_350" class="st0" d="M8.6-90.8h0.9v3.8H8.4c-3.1,0-4.9,1.2-4.9,4.1s1.8,4.1,4.8,4.1c7.7,0,8.4-12.1,18-12.1
			c5.2,0,8.6,2.6,8.6,8.2s-3.4,8.1-8.6,8.1h-2v-3.8h2.1c3.1,0,4.9-1.3,4.9-4.2s-1.8-4.2-4.9-4.2c-7.6,0-8.4,12.1-18,12.1
			c-5.3,0-8.6-2.6-8.6-8C0-88.2,3.4-90.8,8.6-90.8z"/>
	</g>
	<g id="Grupo_63" transform="translate(0.971 230.923)">
		<path id="Trazado_338" class="st1" d="M29.2,6.4c-0.8-2.5-1.3-4-1.3-11.8v-15.1c0-8.9-2.8-12.2-9.1-12.2H14V6.4H0v-96.2h21.1
			c14.5,0,20.7,7.3,20.7,22.1v7.6c0,9.9-2.9,16.4-9.1,19.5c7,3.2,9.3,10.4,9.3,20.5v14.8c0,4.7,0.1,8.1,1.5,11.7L29.2,6.4z M14-76
			v29.5h5.5c5.2,0,8.4-2.5,8.4-10.2v-9.5c0-6.9-2.2-9.9-7.1-9.9H14z"/>
		<path id="Trazado_339" class="st1" d="M49.6-89.8h14V6.4h-14V-89.8z"/>
		<path id="Trazado_340" class="st1" d="M93.8-11.3l10.7-78.4h12.8L103.6,6.4H82.8L69.1-89.8h14.1L93.8-11.3z"/>
		<path id="Trazado_341" class="st1" d="M136.9-49.2h19.2v13.7h-19.2v28.2H161V6.4H123v-96.2H161V-76h-24.1L136.9-49.2z"/>
		<path id="Trazado_342" class="st1" d="M196.9,6.4c-0.8-2.5-1.3-4-1.3-11.8v-15.1c0-8.9-2.8-12.2-9.1-12.2h-4.8V6.4h-14v-96.2h21.1
			c14.5,0,20.7,7.3,20.7,22.1v7.6c0,9.9-2.9,16.4-9.1,19.5c7,3.2,9.3,10.4,9.3,20.5v14.8c0,4.7,0.1,8.1,1.5,11.7L196.9,6.4z
			 M181.6-76v29.5h5.5c5.2,0,8.4-2.5,8.4-10.2v-9.5c0-6.9-2.2-9.9-7.1-9.9H181.6z"/>
		<path id="Trazado_343" class="st1" d="M215.9-66.7c0-15.4,7.5-24.2,21.2-24.2s21.2,8.8,21.2,24.2v50c0,15.4-7.5,24.2-21.2,24.2
			s-21.2-8.8-21.2-24.2V-66.7z M229.9-15.7c0,6.9,2.8,9.5,7.2,9.5s7.2-2.6,7.2-9.5v-51.9c0-6.9-2.8-9.5-7.2-9.5s-7.2,2.6-7.2,9.5
			V-15.7z"/>
		<path id="Trazado_344" class="st1" d="M285-90.9c13.6,0,20.6,8.8,20.6,24.2v3h-13.2v-4c0-6.9-2.5-9.5-7-9.5s-7,2.6-7,9.5
			c0,19.8,27.3,23.5,27.3,51c0,15.4-7.1,24.2-20.8,24.2s-20.8-8.8-20.8-24.2v-5.9h13.2v6.9c0,6.9,2.8,9.3,7.2,9.3s7.2-2.5,7.2-9.3
			c0-19.8-27.3-23.5-27.3-51C264.5-82.1,271.5-90.9,285-90.9z"/>
	</g>
	<g id="Grupo_65" transform="translate(312.966 230.921)">
		<path id="Trazado_351" class="st1" d="M0-6.4c0-9.7,4.7-13.7,13.3-13.7h4.7c6.4,0,10.4,2.4,12,7.7c1.6-5.6,5.9-7.7,12.1-7.7h9.1
			c2.6,0,5-0.1,7-1.2v7c-1.7,0.8-3.2,1.1-7.1,1.1H42c-6.6,0-8.7,3.3-8.7,9v4.8h24.9v6.9H0L0-6.4z M27.5-4.7c0-5.5-1.7-8.7-8-8.7
			h-5.6c-5.2,0-8,2-8,7.1v6.7h21.5L27.5-4.7z"/>
		<path id="Trazado_352" class="st1" d="M25.8-49.4h5.8v15h20.7v-18.5h5.9v25.3H0v-25.3h5.9v18.5h19.9L25.8-49.4z"/>
		<path id="Trazado_353" class="st1" d="M37.4-71L0-57.9v-7.1l28.6-9.6L0-84.3v-6.5l37.4,13.1h20.9v6.8L37.4-71z"/>
	</g>
</g>
</svg>
