<?xml version="1.0" encoding="utf-8"?>
<!-- Generator: Adobe Illustrator 25.4.1, SVG Export Plug-In . SVG Version: 6.00 Build 0)  -->
<svg version="1.1" id="Capa_1" xmlns="http://www.w3.org/2000/svg" xmlns:xlink="http://www.w3.org/1999/xlink" x="0px" y="0px"
	 viewBox="0 0 39.6 38.6" style="enable-background:new 0 0 39.6 38.6;" xml:space="preserve">
<style type="text/css">
	.st0{fill:#FFFFFF;}
</style>
<g id="Grupo_76" transform="translate(5.271 5.758)">
	<path id="Trazado_373" class="st0" d="M20.8,32.8c-1,0.2-1.4-0.4-1.4-0.9c0-0.7,0-2.8,0-5.4c0.1-1.4-0.4-2.7-1.3-3.7
		c4.4-0.5,9-2.2,9-9.8c0-2-0.7-3.9-2-5.3c0.6-1.7,0.5-3.6-0.2-5.2c0,0-1.7-0.5-5.4,2c-3.2-0.9-6.7-0.9-9.9,0c-3.8-2.6-5.4-2-5.4-2
		C3.4,4.1,3.3,6,3.9,7.7C2.6,9.1,1.9,11,1.9,13c0,7.6,4.6,9.3,9,9.8c-0.7,0.7-1.2,1.6-1.3,2.6c-2,1.1-4.6,0.4-5.7-1.6c0,0,0,0,0,0
		c-0.6-1.1-1.8-1.9-3-2c0,0-1.9,0-0.1,1.2c1.1,0.7,1.8,1.7,2.2,2.9c0,0,1.2,3.5,6.7,2.3c0,1.7,0,3.2,0,3.7c0,0.5-0.4,1.1-1.3,1
		c-10.4-3.5-16-14.7-12.5-25c3.5-10.4,14.7-16,25-12.5s16,14.7,12.5,25C31.3,26.2,26.7,30.8,20.8,32.8L20.8,32.8z"/>
	<path id="Trazado_374" class="st0" d="M9.6,26.2c0,0.2-0.1,0.3-0.4,0.4c-0.2,0-0.4-0.1-0.5-0.2s0.1-0.3,0.4-0.4
		C9.4,26,9.6,26.1,9.6,26.2z"/>
	<path id="Trazado_375" class="st0" d="M8,26.3c0,0.2-0.2,0.3-0.4,0.3s-0.4-0.1-0.4-0.3S7.3,26,7.6,26S8,26.1,8,26.3z"/>
	<path id="Trazado_376" class="st0" d="M6.4,26.1c0,0.2-0.3,0.2-0.5,0.2c-0.2-0.1-0.4-0.2-0.3-0.4c0-0.2,0.3-0.2,0.5-0.2
		S6.4,25.9,6.4,26.1z"/>
	<path id="Trazado_377" class="st0" d="M4.9,25.7c-0.1,0.1-0.3,0.1-0.5-0.1s-0.2-0.4-0.1-0.5s0.3-0.1,0.5,0.1S5,25.6,4.9,25.7z"/>
	<path id="Trazado_378" class="st0" d="M3.8,24.4c-0.1,0.1-0.3,0-0.4-0.2s-0.1-0.4,0-0.5c0.1-0.1,0.3,0,0.4,0.2
		C3.9,24.1,3.9,24.3,3.8,24.4z"/>
	<path id="Trazado_379" class="st0" d="M3.1,23.3c-0.1,0.1-0.3,0-0.4-0.1c-0.1-0.1-0.1-0.3-0.1-0.4c0.1-0.1,0.3,0,0.4,0.1
		C3.2,23,3.2,23.2,3.1,23.3z"/>
	<path id="Trazado_380" class="st0" d="M2.1,22.4c-0.1,0.1-0.2,0.1-0.3,0.1c-0.1-0.1-0.2-0.2-0.2-0.3S1.8,22,2,22.1
		C2.1,22.2,2.2,22.3,2.1,22.4z"/>
</g>
</svg>
