<?xml version="1.0" encoding="utf-8"?>
<!-- Generator: Adobe Illustrator 25.4.1, SVG Export Plug-In . SVG Version: 6.00 Build 0)  -->
<svg version="1.1" id="Capa_1" xmlns="http://www.w3.org/2000/svg" xmlns:xlink="http://www.w3.org/1999/xlink" x="0px" y="0px"
	 viewBox="0 0 35.8 28.6" style="enable-background:new 0 0 35.8 28.6;" xml:space="preserve">
<style type="text/css">
	.st0{fill:#FFFFFF;}
</style>
<g>
	<path id="Trazado_366" class="st0" d="M12.8,15C2.6,7.6,2.7,7.6,0,5.5V2.7C0,1.2,1.2,0,2.7,0c0,0,0,0,0,0h30.4
		c1.5,0,2.7,1.2,2.7,2.7c0,0,0,0,0,0v2.8C33.1,7.6,33.2,7.6,23,15c-1.2,0.9-3.5,2.9-5.1,2.9C16.3,17.9,13.9,15.9,12.8,15z"/>
	<path id="Trazado_367" class="st0" d="M35.8,10v15.9c0,1.5-1.2,2.7-2.7,2.7c0,0,0,0,0,0H2.7c-1.5,0-2.7-1.2-2.7-2.7c0,0,0,0,0,0V10
		c1.6,1.2,3.7,2.8,10.7,7.9c1.6,1.2,4.2,3.6,7.2,3.6c3,0,5.7-2.5,7.2-3.6C32.1,12.9,34.2,11.2,35.8,10z"/>
</g>
</svg>
