<?xml version="1.0" encoding="utf-8"?>
<!-- Generator: Adobe Illustrator 25.4.1, SVG Export Plug-In . SVG Version: 6.00 Build 0)  -->
<svg version="1.1" id="Capa_1" xmlns="http://www.w3.org/2000/svg" xmlns:xlink="http://www.w3.org/1999/xlink" x="0px" y="0px"
	 viewBox="0 0 35.8 35.8" style="enable-background:new 0 0 35.8 35.8;" xml:space="preserve">
<style type="text/css">
	.st0{fill:#FFFFFF;}
</style>
<path id="Trazado_363" class="st0" d="M3.4,35.8c-0.8,0-1.5-0.5-1.6-1.3L0,27.2c-0.2-0.8,0.2-1.6,1-1.9l7.8-3.4
	c0.7-0.3,1.5-0.1,2,0.5l3.5,4.2c5.4-2.6,9.8-6.9,12.4-12.4l-4.2-3.5c-0.6-0.5-0.8-1.3-0.5-2L25.3,1c0.3-0.7,1.1-1.2,1.9-1l7.3,1.7
	c0.8,0.2,1.3,0.9,1.3,1.6C35.8,21.3,21.3,35.8,3.4,35.8z"/>
</svg>
