<?xml version="1.0" encoding="utf-8"?>
<!-- Generator: Adobe Illustrator 25.4.1, SVG Export Plug-In . SVG Version: 6.00 Build 0)  -->
<svg version="1.1" id="Capa_1" xmlns="http://www.w3.org/2000/svg" xmlns:xlink="http://www.w3.org/1999/xlink" x="0px" y="0px"
	 viewBox="0 0 38.9 24.6" style="enable-background:new 0 0 38.9 24.6;" xml:space="preserve">
<style type="text/css">
	.st0{fill:#FFFFFF;}
</style>
<g>
	<path class="st0" d="M30.4,6.1c-9.3,0-9.3,9.3-9.3,9.3s-0.6,9.2,9.3,9.2c0,0,8.2,0.5,8.2-6.4h-4.2c0,0,0.1,2.6-3.9,2.6
		c-0.2,0-0.4,0-0.6,0c-2.2-0.2-3.8-2-3.6-4.2h12.5C38.8,16.6,40.2,6.1,30.4,6.1z M26.3,13.4c0.3-2.1,2.1-3.7,4.2-3.7
		c3.7,0,3.7,3.7,3.7,3.7H26.3z"/>
	<path class="st0" d="M15.7,11c0,0,3.7-0.3,3.7-4.6S16.4,0,12.5,0H0v24.1h12.5c0,0,7.7,0.2,7.7-7.1C20.2,17,20.5,11,15.7,11z
		 M5.5,4.3h7c0,0,1.7,0,1.7,2.5c0,2.5-1,2.9-2.1,2.9H5.5V4.3z M12.2,19.8H5.5v-6.4h7c0,0,2.5,0,2.5,3.3
		C15.1,19.5,13.2,19.8,12.2,19.8z"/>
	<rect id="Rectángulo_16" x="25.2" y="1.4" class="st0" width="9.9" height="3"/>
</g>
</svg>
